<svg width="2360" height="2360" viewBox="0 0 2360 2360" fill="none" xmlns="http://www.w3.org/2000/svg">
<g clip-path="url(#clip0_109_414)">
<rect width="2360" height="2360" fill="white"/>
<path d="M2167.29 554.805L2279.8 559.696L2343.84 513.447L2226.66 329.119L2223.54 334.678L2167.29 554.805Z" stroke="black" stroke-width="2" stroke-miterlimit="10"/>
<path d="M1471.55 587.056L1480 761.379L1545.15 800.513L1591.62 797.4L1711.69 669.77L1756.16 563.042L1471.55 587.056Z" stroke="black" stroke-width="2" stroke-miterlimit="10"/>
<path d="M-49.0947 366.026L199.049 484.761L33.1751 169.245L-8.18214 136.56L-49.0947 366.026Z" stroke="black" stroke-width="2" stroke-miterlimit="10"/>
<path d="M1699.68 2028.99L1927.37 2156.4H1983.4L1958.72 1907.59L1855.77 1845.55L1699.68 2028.99Z" stroke="black" stroke-width="2" stroke-miterlimit="10"/>
<path d="M2005.87 95.438L2126.38 228.848L2222.88 247.748L2276.91 212.394L2299.15 39.1834L2054.56 -88.2234L2005.87 95.438Z" stroke="black" stroke-width="2" stroke-miterlimit="10"/>
<path d="M1372.39 2287.8L1373.72 2295.8L1529.37 2540.39L1751.72 2464.34L1747.27 2275.12L1562.05 2111.03L1372.39 2287.8Z" stroke="black" stroke-width="2" stroke-miterlimit="10"/>
<path d="M1854.67 1842.66L1855.79 1845.55L1958.73 1907.58L2101.26 1855.11L2175.08 1781.07L2140.39 1660.11L1962.51 1639.21L1904.92 1653.21L1854.67 1842.66Z" stroke="black" stroke-width="2" stroke-miterlimit="10"/>
<path d="M1642.77 175.033L1687.24 366.255L1820.65 517.453H1833.32L1906.03 393.826L1904.03 386.044L1699.24 115.888L1642.77 175.033Z" stroke="black" stroke-width="2" stroke-miterlimit="10"/>
<path d="M1007.29 596.159L1065.1 814.285L1203.4 992.166L1247.87 1031.74L1268.55 1023.29L1285.23 928.351L1158.26 607.277L1137.81 571.034L1007.29 596.159Z" stroke="black" stroke-width="2" stroke-miterlimit="10"/>
<path d="M634.851 1035.31L872.988 1108.69L954.369 913.687L938.359 611.291L706.003 677.996L634.851 1035.31Z" stroke="black" stroke-width="2" stroke-miterlimit="10"/>
<path d="M2302.48 1240.09L2336.72 1291.68L2492.37 1274.34L2709.83 1153.16L2714.27 1032.42L2558.63 991.285L2302.48 1240.09Z" stroke="black" stroke-width="2" stroke-miterlimit="10"/>
<path d="M1283.45 310.44L1285.22 435.623L1317.24 450.298L1687.9 366.25L1643.43 175.028L1423.75 166.134L1334.81 215.941L1283.45 310.44Z" stroke="black" stroke-width="2" stroke-miterlimit="10"/>
<path d="M221.049 929.688L257.514 1234.75L567.249 1086.67L594.598 1056.43L323.775 785.828L221.049 929.688Z" stroke="black" stroke-width="2" stroke-miterlimit="10"/>
<path d="M-603.191 1538.49L-57.9869 1436.43L2.04773 1329.26L-129.139 1195.85L-416.416 1273.01L-603.191 1538.49Z" stroke="black" stroke-width="2" stroke-miterlimit="10"/>
<path d="M1966.96 635.081L2019.65 871.218L2084.8 954.377L2307.15 784.946L2254.01 664.432L2103.26 599.283L1966.96 635.081Z" stroke="black" stroke-width="2" stroke-miterlimit="10"/>
<path d="M1724.59 -70.6766L1742.6 69.1818L1835.98 103.202L2005.86 95.4191L2054.78 -88.4647L2017.42 -299.253L1961.61 -336.608L1801.3 -227.434L1767.06 -189.857L1730.59 -93.3565L1724.59 -70.6766Z" stroke="black" stroke-width="2" stroke-miterlimit="10"/>
<path d="M1302.36 1038.19L1338.6 1240.08L1353.72 1287.44L1565.18 1231.85L1336.16 1047.08L1302.36 1038.19Z" stroke="black" stroke-width="2" stroke-miterlimit="10"/>
<path d="M1304.57 1399.06L1530.26 1436.19L1670.34 1306.12L1673.68 1288.11L1565.17 1231.85L1353.71 1287.44L1304.57 1399.06Z" stroke="black" stroke-width="2" stroke-miterlimit="10"/>
<path d="M566.582 1798.85L805.832 1970.5L830.29 1891.79L646.851 1748.82L566.582 1798.85Z" stroke="black" stroke-width="2" stroke-miterlimit="10"/>
<path d="M372.026 2222.43L615.277 2327.82L585.038 2197.97L372.026 2222.43Z" stroke="black" stroke-width="2" stroke-miterlimit="10"/>
<path d="M1683.46 877.879L1708.59 925.017L1898.7 875.878L1743.05 784.047L1683.46 877.879Z" stroke="black" stroke-width="2" stroke-miterlimit="10"/>
<path d="M585.039 2197.97L615.279 2327.82L669.31 2441.22L864.089 2092.13L800.942 2018.31L636.625 2050.77L585.039 2197.97Z" stroke="black" stroke-width="2" stroke-miterlimit="10"/>
<path d="M2333.16 1411.74L2514.6 1617.64L2625.78 1590.29L2632.45 1364.16L2491.03 1275.22L2335.39 1292.56L2333.16 1411.74Z" stroke="black" stroke-width="2" stroke-miterlimit="10"/>
<path d="M1423.09 166.136L1642.77 175.03L1699.25 116.329L1742.61 68.7462L1724.6 -71.1124L1455.33 -48.8774L1423.09 166.136Z" stroke="black" stroke-width="2" stroke-miterlimit="10"/>
<path d="M2101.26 1855.11L2175.97 2098.59L2299.15 2063.23L2338.73 1853.56L2175.08 1780.85L2101.26 1855.11Z" stroke="black" stroke-width="2" stroke-miterlimit="10"/>
<path d="M1043.98 1589.17L1213.42 1734.14L1508.92 1534.03L1531.15 1435.75L1305.47 1398.62L1173.39 1435.3L1051.1 1540.48L1043.98 1589.17Z" stroke="black" stroke-width="2" stroke-miterlimit="10"/>
<path d="M2299.14 2063.22L2319.82 2080.57L2593.75 1993.41L2595.53 1988.07L2492.36 1813.97L2478.35 1800.63L2339.38 1853.55L2299.14 2063.22Z" stroke="black" stroke-width="2" stroke-miterlimit="10"/>
<path d="M539.679 250.625L838.74 272.86L907.224 163.463L782.263 -147.828L675.757 -29.0923L539.679 250.625Z" stroke="black" stroke-width="2" stroke-miterlimit="10"/>
<path d="M567.255 1086.68L649.08 1374.18L957.258 1368.62L904.339 1132.26L872.543 1108.02L634.405 1034.65L594.16 1056.88L567.255 1086.68Z" stroke="black" stroke-width="2" stroke-miterlimit="10"/>
<path d="M1508.9 1534.49L1618.08 1718.15L1794.4 1554.95L1780.61 1490.24L1669.44 1306.14L1529.36 1436.21L1508.9 1534.49Z" stroke="black" stroke-width="2" stroke-miterlimit="10"/>
<path d="M1901.81 2357.39L2074.58 2455.9L2127.28 2425.43L2058.35 2180.85L1991.64 2161.95L1901.81 2357.39Z" stroke="black" stroke-width="2" stroke-miterlimit="10"/>
<path d="M1561.84 2111.93L1747.06 2276.02L1927.38 2156.4L1699.7 2028.99L1582.96 2057.68L1561.84 2111.93Z" stroke="black" stroke-width="2" stroke-miterlimit="10"/>
<path d="M1615.41 1740.82L1854.66 1842.66L1904.46 1653.21L1794.4 1554.94L1618.08 1718.14L1615.41 1740.82Z" stroke="black" stroke-width="2" stroke-miterlimit="10"/>
<path d="M878.763 335.571L964.368 596.611H1007.28L1137.36 571.485L1285.22 436.073L1283.44 310.89L1161.15 255.747L878.763 335.571Z" stroke="black" stroke-width="2" stroke-miterlimit="10"/>
<path d="M400.71 436.51L705.997 677.76L938.353 611.055L964.368 595.268L878.763 335.563L838.74 274.639L539.679 252.404L440.066 307.769L400.71 436.51Z" stroke="black" stroke-width="2" stroke-miterlimit="10"/>
<path d="M782.267 -146.484L907.228 164.807L1021.29 141.46L1070.21 18.0552L933.465 -327.033L829.183 -278.116L782.267 -146.484Z" stroke="black" stroke-width="2" stroke-miterlimit="10"/>
<path d="M-261.435 485.434L-203.624 602.391L204.389 488.992L199.053 485.212L-49.0906 366.032L-164.713 376.705L-261.435 485.434Z" stroke="black" stroke-width="2" stroke-miterlimit="10"/>
<path d="M2258.01 1138.92L2499.26 880.324L2480.14 788.716L2258.01 1138.92Z" stroke="black" stroke-width="2" stroke-miterlimit="10"/>
<path d="M-264.779 904.127L-174.282 1019.97L62.5213 846.983L124.112 678.886L-198.074 706.902L-264.779 904.127Z" stroke="black" stroke-width="2" stroke-miterlimit="10"/>
<path d="M2093.7 2165.74L2335.17 2302.93L2364.52 2145.06L2320.05 2080.58L2299.37 2063.24L2176.19 2098.59L2093.7 2165.74Z" stroke="black" stroke-width="2" stroke-miterlimit="10"/>
<path d="M1213.42 1734.16L1244.1 1789.97L1497.36 1865.57L1615.43 1740.83L1618.1 1718.6L1508.92 1534.94L1213.42 1734.16Z" stroke="black" stroke-width="2" stroke-miterlimit="10"/>
<path d="M1528.92 947.244L1682.34 985.266L1708.58 925.009L1683.46 877.871L1591.62 797.38L1545.15 800.493L1528.92 947.244Z" stroke="black" stroke-width="2" stroke-miterlimit="10"/>
<path d="M1946.72 609.948L1966.95 635.073L2103.7 599.275L2167.29 554.805L2223.55 334.677L1946.72 609.948Z" stroke="black" stroke-width="2" stroke-miterlimit="10"/>
<path d="M2222.88 246.632L2226.66 328.234L2343.84 513.452L2392.31 530.573L2461.9 434.073L2453.23 385.601L2396.09 242.185L2372.3 228.621L2276.91 212.167L2222.88 246.632Z" stroke="black" stroke-width="2" stroke-miterlimit="10"/>
<path d="M1836 103.22L1904.04 386.495L1906.04 394.277L2126.39 228.626L2005.88 95.2158L1836 103.22Z" stroke="black" stroke-width="2" stroke-miterlimit="10"/>
<path d="M2017.42 -299.239L2054.78 -88.4509L2299.36 38.956L2410.54 -140.926L2277.13 -285.453L2017.42 -299.239Z" stroke="black" stroke-width="2" stroke-miterlimit="10"/>
<path d="M938.368 611.277L954.377 913.673L1033.98 894.774L1065.11 814.283L1007.3 596.157H964.383L938.368 611.277Z" stroke="black" stroke-width="2" stroke-miterlimit="10"/>
<path d="M-257.895 2133.04H-237.884L162.347 2081.9L153.676 1962.94L-10.6413 1816.41L-213.87 1949.82L-257.895 2133.04Z" stroke="black" stroke-width="2" stroke-miterlimit="10"/>
<path d="M2254.45 664.424L2307.59 784.938L2475.02 748.473L2510.37 708.45L2392.31 530.569L2343.83 513.448L2279.8 559.697L2254.45 664.424Z" stroke="black" stroke-width="2" stroke-miterlimit="10"/>
<path d="M202.157 2129.48L220.168 2211.53L373.145 2222.43L586.157 2197.97L637.742 2049.88L520.563 2005.41L202.157 2129.48Z" stroke="black" stroke-width="2" stroke-miterlimit="10"/>
<path d="M1336.15 1047.09L1564.72 1232.98L1673.23 1289.23L1719.26 1240.32L1709.03 1198.96L1498.24 974.608L1336.15 1047.09Z" stroke="black" stroke-width="2" stroke-miterlimit="10"/>
<path d="M1053.32 2565.3L1070.44 2587.53L1373.73 2295.81L1372.39 2287.8L1238.98 2198.86L1066 2392.08L1053.32 2565.3Z" stroke="black" stroke-width="2" stroke-miterlimit="10"/>
<path d="M36.7192 2403.42L179.913 2786.31L268.853 2658.02L319.105 2424.33L217.713 2260.01L36.7192 2403.42Z" stroke="black" stroke-width="2" stroke-miterlimit="10"/>
<path d="M1669.67 1306.13L1780.85 1490.24L1991.41 1445.77L2004.98 1155.38L1719.92 1239.43L1673.9 1288.34L1669.67 1306.13Z" stroke="black" stroke-width="2" stroke-miterlimit="10"/>
<path d="M933.461 -327.701L1069.32 17.3875L1242.08 52.2965L1287.67 -271.001L1176.49 -427.981L1096.67 -416.419L941.021 -335.483L933.461 -327.701Z" stroke="black" stroke-width="2" stroke-miterlimit="10"/>
<path d="M1711.69 669.092L1743.93 783.38L1899.57 875.211L2020.53 870.542L1967.84 634.405L1947.6 609.28L1834.2 517.227H1821.53L1757.49 561.697L1711.69 669.092Z" stroke="black" stroke-width="2" stroke-miterlimit="10"/>
<path d="M1158.26 2117.7L1240.76 2198.2L1374.17 2287.14L1563.61 2111.26L1584.73 2057L1499.13 1864.89L1245.87 1789.29L1158.26 2117.7Z" stroke="black" stroke-width="2" stroke-miterlimit="10"/>
<path d="M1498.67 973.487L1709.46 1197.84L1682.34 985.271L1528.91 947.249L1498.67 973.487Z" stroke="black" stroke-width="2" stroke-miterlimit="10"/>
<path d="M1070.43 2587.54L1077.33 2651.13L1134.69 2748.52L1245.87 2775.65H1268.1L1486.67 2726.06L1529.59 2540.4L1373.94 2295.81L1070.43 2587.54Z" stroke="black" stroke-width="2" stroke-miterlimit="10"/>
<path d="M1991.19 1445.54L1995.64 1451.55L2209.76 1528.26L2333.16 1411.75L2336.72 1291.68L2303.59 1239.42L2228.88 1174.28L2100.81 1093.34L2005.86 1154.49L1991.19 1445.54Z" stroke="black" stroke-width="2" stroke-miterlimit="10"/>
<path d="M-100.014 1648.56L-11.0735 1815.76L153.244 1962.29L228.843 1846.23L278.427 1541.16L133.677 1332.6L0.266212 1329.26L-58.6567 1436.43L-69.5519 1466.45L-100.014 1648.56Z" stroke="black" stroke-width="2" stroke-miterlimit="10"/>
<path d="M1137.35 571.037L1157.81 607.28L1443.09 780.714L1480 761.369L1471.55 587.046L1317.24 450.301L1285.22 435.626L1137.35 571.037Z" stroke="black" stroke-width="2" stroke-miterlimit="10"/>
<path d="M503.438 1590.29L665.532 1568.06L649.523 1374.17L533.678 1416.19L503.438 1590.29Z" stroke="black" stroke-width="2" stroke-miterlimit="10"/>
<path d="M497.445 1820.42L519.68 2006.3L636.859 2050.77L801.176 2018.31L806.068 1971.39L566.818 1799.74L508.118 1803.07L497.445 1820.42Z" stroke="black" stroke-width="2" stroke-miterlimit="10"/>
<path d="M800.941 2017.42L864.088 2091.24L975.263 2135.72L1157.59 2116.82L1244.31 1789.07L1213.62 1733.26L1044.19 1588.29L988.827 1618.75L830.291 1892.02L805.832 1970.73L800.941 2017.42Z" stroke="black" stroke-width="2" stroke-miterlimit="10"/>
<path d="M1833.33 517.903L1946.73 609.957L2223.55 335.576L2226.67 330.017L2222.89 246.636L2126.39 227.736L1906.04 393.387L1833.33 517.903Z" stroke="black" stroke-width="2" stroke-miterlimit="10"/>
<path d="M2084.8 954.376L2099.7 1094.01L2227.77 1174.95L2258.01 1138.93L2480.36 788.725L2475.25 748.479L2307.82 784.945L2084.8 954.376Z" stroke="black" stroke-width="2" stroke-miterlimit="10"/>
<path d="M-174.276 1019.96L-129.806 1195.84L1.38137 1329.25L134.792 1332.59L252.193 1241.2L258.641 1234.75L222.176 929.689L62.5278 846.974L-174.276 1019.96Z" stroke="black" stroke-width="2" stroke-miterlimit="10"/>
<path d="M1747.06 2276.02L1751.51 2465.24H1754.4L1901.82 2356.51L1992.31 2161.95L1983.42 2155.28H1927.39L1747.06 2276.02Z" stroke="black" stroke-width="2" stroke-miterlimit="10"/>
<path d="M646.859 1748.84L829.408 1891.81L987.722 1619.65L691.551 1583.18L646.859 1748.84Z" stroke="black" stroke-width="2" stroke-miterlimit="10"/>
<path d="M287.754 3.59325L398.929 245.066L439.62 307.769L539.233 250.625L675.756 -29.0923L405.155 -97.7986L287.754 3.59325Z" stroke="black" stroke-width="2" stroke-miterlimit="10"/>
<path d="M2103.69 599.283L2254.44 664.432L2279.79 559.705L2167.28 554.813L2103.69 599.283Z" stroke="black" stroke-width="2" stroke-miterlimit="10"/>
<path d="M1699.25 116.33L1904.03 386.486L1835.99 103.211L1742.6 68.7469L1699.25 116.33Z" stroke="black" stroke-width="2" stroke-miterlimit="10"/>
<path d="M872.988 1108.67L904.784 1132.91L1247.2 1031.3L1202.73 991.718L1033.3 895.44L953.701 914.339L872.988 1108.67Z" stroke="black" stroke-width="2" stroke-miterlimit="10"/>
<path d="M2262.01 2475.48L2308.48 2564.42L2330.71 2586.65L2534.16 2544.85L2575.52 2334.06L2572.19 2322.5L2341.83 2335.62L2262.01 2475.48Z" stroke="black" stroke-width="2" stroke-miterlimit="10"/>
<path d="M62.5153 846.976L221.051 929.913L323.777 786.052L277.528 515.229L124.773 678.656L62.5153 846.976Z" stroke="black" stroke-width="2" stroke-miterlimit="10"/>
<path d="M33.1793 169.24L199.053 484.755L204.389 488.535L276.875 515.217L400.058 436.505L439.414 307.764L398.723 245.061L33.1793 169.24Z" stroke="black" stroke-width="2" stroke-miterlimit="10"/>
<path d="M-237.875 2132.38L30.7242 2405.87L36.7276 2403.65L217.276 2260.01L219.055 2211.53L202.156 2129.49L163.023 2081.24L-237.875 2132.38Z" stroke="black" stroke-width="2" stroke-miterlimit="10"/>
<path d="M2335.16 2302.92L2342.28 2335.39L2572.63 2322.27L2578.86 2301.59L2452.78 2160.17L2363.84 2145.05L2335.16 2302.92Z" stroke="black" stroke-width="2" stroke-miterlimit="10"/>
<path d="M251.079 1241.21L533.242 1416.2L649.086 1374.17L567.261 1086.67L257.527 1234.76L251.079 1241.21Z" stroke="black" stroke-width="2" stroke-miterlimit="10"/>
<path d="M1958.73 1907.59L1983.41 2156.18L1992.3 2162.85L2059.01 2181.75L2094.36 2165.74L2176.63 2099.04L2101.92 1855.56L1958.73 1907.59Z" stroke="black" stroke-width="2" stroke-miterlimit="10"/>
<path d="M1317.25 450.294L1471.57 587.04L1756.62 563.026L1820.66 518.556L1687.25 367.357L1317.25 450.294Z" stroke="black" stroke-width="2" stroke-miterlimit="10"/>
<path d="M1591.63 797.39L1683.46 877.881L1743.94 784.049L1711.7 669.094L1591.63 797.39Z" stroke="black" stroke-width="2" stroke-miterlimit="10"/>
<path d="M-363.946 2188.41L-246.545 2489.25L-166.944 2514.6L30.7258 2406.76L-237.874 2133.26H-257.885L-363.946 2188.41Z" stroke="black" stroke-width="2" stroke-miterlimit="10"/>
<path d="M1497.35 1865.57L1582.95 2057.68L1699.69 2028.99L1855.33 1845.55L1854.22 1842.66L1614.97 1740.83L1497.35 1865.57Z" stroke="black" stroke-width="2" stroke-miterlimit="10"/>
<path d="M228.844 1846.23L497.443 1820.43L507.894 1802.2L466.981 1602.98L278.428 1540.49L228.844 1846.23Z" stroke="black" stroke-width="2" stroke-miterlimit="10"/>
<path d="M1021.29 140.798L1161.15 255.308L1283.45 310.451L1334.81 215.952L1242.98 52.3021L1069.32 17.3931L1021.29 140.798Z" stroke="black" stroke-width="2" stroke-miterlimit="10"/>
<path d="M904.777 1132.91L958.141 1369.27L1050.64 1540.92L1172.93 1435.75L1198.28 1320.79L1246.75 1031.74L904.777 1132.91Z" stroke="black" stroke-width="2" stroke-miterlimit="10"/>
<path d="M2058.35 2181.08L2127.28 2425.67L2262.02 2475.7L2342.29 2335.62L2335.18 2303.15L2093.7 2165.96L2058.35 2181.08Z" stroke="black" stroke-width="2" stroke-miterlimit="10"/>
<path d="M1268.12 1022.19L1302.36 1038.2L1336.15 1047.09L1498.25 974.608L1528.49 948.37L1544.72 801.619L1479.57 762.485L1442.66 781.83L1284.35 928.359L1268.12 1022.19Z" stroke="black" stroke-width="2" stroke-miterlimit="10"/>
<path d="M1682.35 985.273L1709.48 1197.84L1719.71 1239.2L2004.76 1155.15L2099.7 1094L2084.81 954.366L2019.66 871.207L1898.7 875.877L1708.59 925.016L1682.35 985.273Z" stroke="black" stroke-width="2" stroke-miterlimit="10"/>
<path d="M1172.49 1435.76L1304.56 1399.07L1353.7 1287.9L1338.58 1240.54L1197.84 1321.25L1172.49 1435.76Z" stroke="black" stroke-width="2" stroke-miterlimit="10"/>
<path d="M838.745 273.537L878.768 334.461L1161.15 255.304L1021.29 140.793L907.229 164.14L838.745 273.537Z" stroke="black" stroke-width="2" stroke-miterlimit="10"/>
<path d="M1962.07 1639.22L2139.95 1660.12L2209.32 1528.27L1995.2 1451.55L1962.07 1639.22Z" stroke="black" stroke-width="2" stroke-miterlimit="10"/>
<path d="M894.55 2452.34L1053.31 2565.3L1066.87 2391.42L963.256 2280.25L894.55 2452.34Z" stroke="black" stroke-width="2" stroke-miterlimit="10"/>
<path d="M-94.6724 -62.8895L-8.17799 137.226L33.1792 169.912L399.391 245.733L288.215 4.2603L21.3947 -158.945L-94.6724 -62.8895Z" stroke="black" stroke-width="2" stroke-miterlimit="10"/>
<path d="M963.273 2279.59L1066.89 2390.76L1239.88 2197.54L1158.27 2117.72L975.947 2136.62L963.273 2279.59Z" stroke="black" stroke-width="2" stroke-miterlimit="10"/>
<path d="M1197.85 1320.8L1338.6 1240.09L1302.35 1038.19L1268.11 1022.18L1247.43 1030.63L1197.85 1320.8Z" stroke="black" stroke-width="2" stroke-miterlimit="10"/>
<path d="M1033.97 894.789L1203.41 991.067L1065.1 813.187L1033.97 894.789Z" stroke="black" stroke-width="2" stroke-miterlimit="10"/>
<path d="M1780.85 1490.23L1794.63 1554.94L1904.7 1653.22L1962.28 1639.21L1995.86 1451.54L1991.41 1445.54L1780.85 1490.23Z" stroke="black" stroke-width="2" stroke-miterlimit="10"/>
<path d="M217.271 2260.01L318.662 2424.33L654.857 2478.81L668.642 2460.58V2441.23L614.611 2327.83L371.36 2222.44L218.382 2211.54L217.271 2260.01Z" stroke="black" stroke-width="2" stroke-miterlimit="10"/>
<path d="M466.98 1602.97L507.893 1803.08L566.593 1799.75L647.751 1749.72L692.221 1584.07L665.317 1569.61L503.223 1591.85L466.98 1602.97Z" stroke="black" stroke-width="2" stroke-miterlimit="10"/>
<path d="M669.094 2460.57L895.002 2452.35L963.708 2279.58L975.493 2136.61L864.317 2092.14L669.094 2441.23V2460.57Z" stroke="black" stroke-width="2" stroke-miterlimit="10"/>
<path d="M1242.97 52.2872L1334.8 215.937L1423.74 166.131L1455.98 -48.8823L1364.15 -202.304L1336.14 -238.77L1289 -271.01L1242.97 52.2872Z" stroke="black" stroke-width="2" stroke-miterlimit="10"/>
<path d="M153.236 1962.29L161.908 2081.25L202.153 2129.5L520.559 2006.32L498.324 1820.43L228.835 1846.22L153.236 1962.29Z" stroke="black" stroke-width="2" stroke-miterlimit="10"/>
<path d="M1158.26 607.274L1285.23 927.237L1443.54 780.708L1158.26 607.274Z" stroke="black" stroke-width="2" stroke-miterlimit="10"/>
<path d="M21.6063 -159.608L288.427 3.59741L405.828 -97.7944L533.457 -370.174L460.082 -432.432L157.685 -258.332L21.6063 -159.83V-159.608Z" stroke="black" stroke-width="2" stroke-miterlimit="10"/>
<path d="M1754.38 2466.13L1931.15 2599.54L2074.56 2456.79L1901.8 2358.29L1754.38 2466.13Z" stroke="black" stroke-width="2" stroke-miterlimit="10"/>
<path d="M133.672 1332.6L278.422 1541.16L466.975 1602.98L503.441 1589.63L533.236 1415.53L251.073 1241.21L133.672 1332.6Z" stroke="black" stroke-width="2" stroke-miterlimit="10"/>
<path d="M2227.76 1174.93L2302.47 1240.08L2556.84 991.937L2499.25 880.761L2258 1139.36L2227.76 1174.93Z" stroke="black" stroke-width="2" stroke-miterlimit="10"/>
<path d="M2276.9 212.17L2372.29 228.624L2619.1 -17.2962L2527.05 -99.1212L2462.12 -136.476L2410.76 -140.923L2299.58 38.9587L2276.9 212.17Z" stroke="black" stroke-width="2" stroke-miterlimit="10"/>
<path d="M2140.39 1660.12L2175.07 1781.08L2338.72 1853.56L2477.69 1800.64L2514.6 1617.65L2333.16 1411.75L2209.76 1528.26L2140.39 1660.12Z" stroke="black" stroke-width="2" stroke-miterlimit="10"/>
<path d="M2319.83 2080.57L2364.3 2145.05L2453.24 2160.17L2591.99 2021.2L2594.21 1993.4L2319.83 2080.57Z" stroke="black" stroke-width="2" stroke-miterlimit="10"/>
<path d="M-203.633 602.397L-199.186 707.346L124.112 679.108L276.867 515.68L204.381 488.998L-203.633 602.397Z" stroke="black" stroke-width="2" stroke-miterlimit="10"/>
<path d="M277.527 515.228L323.776 785.829L594.599 1056.43L634.844 1034.19L705.996 676.654L400.709 436.516L277.527 515.228Z" stroke="black" stroke-width="2" stroke-miterlimit="10"/>
<path d="M649.53 1374.84L665.539 1568.73L692.443 1583.18L988.614 1619.65L1043.98 1589.19L1050.21 1540.94L958.152 1369.28L649.53 1374.84Z" stroke="black" stroke-width="2" stroke-miterlimit="10"/>
</g>
<defs>
<clipPath id="clip0_109_414">
<rect width="2360" height="2360" fill="white"/>
</clipPath>
</defs>
</svg>
