<svg width="2360" height="2360" viewBox="0 0 2360 2360" fill="none" xmlns="http://www.w3.org/2000/svg">
<g clip-path="url(#clip0_109_329)">
<rect width="2360" height="2360" fill="white"/>
<line x1="1225.87" y1="1637.52" x2="1239.48" y2="1772.93" stroke="black" stroke-width="2"/>
<line x1="1299.16" y1="1696.29" x2="1163.75" y2="1709.9" stroke="black" stroke-width="2"/>
<line x1="1278.36" y1="2159.83" x2="1291.97" y2="2295.25" stroke="black" stroke-width="2"/>
<line x1="1351.65" y1="2218.61" x2="1216.24" y2="2232.21" stroke="black" stroke-width="2"/>
<line x1="1069.86" y1="64.1264" x2="1083.47" y2="199.541" stroke="black" stroke-width="2"/>
<line x1="1143.16" y1="122.902" x2="1007.74" y2="136.511" stroke="black" stroke-width="2"/>
<line x1="1122.35" y1="586.44" x2="1135.96" y2="721.854" stroke="black" stroke-width="2"/>
<line x1="1195.65" y1="645.215" x2="1060.23" y2="658.824" stroke="black" stroke-width="2"/>
<line x1="1748.18" y1="1585.03" x2="1761.79" y2="1720.44" stroke="black" stroke-width="2"/>
<line x1="1821.48" y1="1643.8" x2="1686.06" y2="1657.41" stroke="black" stroke-width="2"/>
<line x1="705.666" y1="1690.01" x2="719.275" y2="1825.42" stroke="black" stroke-width="2"/>
<line x1="778.959" y1="1748.78" x2="643.544" y2="1762.39" stroke="black" stroke-width="2"/>
<line x1="183.353" y1="1742.5" x2="196.961" y2="1877.91" stroke="black" stroke-width="2"/>
<line x1="256.645" y1="1801.27" x2="121.231" y2="1814.88" stroke="black" stroke-width="2"/>
<line x1="1800.67" y1="2107.34" x2="1814.28" y2="2242.76" stroke="black" stroke-width="2"/>
<line x1="1873.97" y1="2166.12" x2="1738.55" y2="2179.73" stroke="black" stroke-width="2"/>
<line x1="758.157" y1="2212.32" x2="771.766" y2="2347.74" stroke="black" stroke-width="2"/>
<line x1="831.45" y1="2271.1" x2="696.035" y2="2284.7" stroke="black" stroke-width="2"/>
<line x1="235.842" y1="2264.81" x2="249.45" y2="2400.23" stroke="black" stroke-width="2"/>
<line x1="309.135" y1="2323.59" x2="173.72" y2="2337.19" stroke="black" stroke-width="2"/>
<line x1="1590.07" y1="11.6374" x2="1603.68" y2="147.052" stroke="black" stroke-width="2"/>
<line x1="1663.36" y1="70.4131" x2="1527.95" y2="84.0215" stroke="black" stroke-width="2"/>
<line x1="547.549" y1="116.618" x2="561.157" y2="252.032" stroke="black" stroke-width="2"/>
<line x1="620.842" y1="175.391" x2="485.427" y2="189" stroke="black" stroke-width="2"/>
<line x1="25.2357" y1="169.107" x2="38.8442" y2="304.521" stroke="black" stroke-width="2"/>
<line x1="98.5287" y1="227.88" x2="-36.886" y2="241.489" stroke="black" stroke-width="2"/>
<line x1="2270.5" y1="1532.54" x2="2284.11" y2="1667.95" stroke="black" stroke-width="2"/>
<line x1="2343.79" y1="1591.31" x2="2208.38" y2="1604.92" stroke="black" stroke-width="2"/>
<line x1="2322.99" y1="2054.85" x2="2336.6" y2="2190.27" stroke="black" stroke-width="2"/>
<line x1="2396.28" y1="2113.63" x2="2260.87" y2="2127.24" stroke="black" stroke-width="2"/>
<line x1="2112.38" y1="-40.8538" x2="2125.99" y2="94.561" stroke="black" stroke-width="2"/>
<line x1="2185.67" y1="17.9198" x2="2050.26" y2="31.5282" stroke="black" stroke-width="2"/>
<line x1="1642.56" y1="533.951" x2="1656.17" y2="669.365" stroke="black" stroke-width="2"/>
<line x1="1715.85" y1="592.726" x2="1580.44" y2="606.335" stroke="black" stroke-width="2"/>
<line x1="600.038" y1="638.931" x2="613.647" y2="774.346" stroke="black" stroke-width="2"/>
<line x1="673.331" y1="697.704" x2="537.917" y2="711.313" stroke="black" stroke-width="2"/>
<line x1="77.725" y1="691.42" x2="91.3334" y2="826.834" stroke="black" stroke-width="2"/>
<line x1="151.017" y1="750.195" x2="15.6027" y2="763.804" stroke="black" stroke-width="2"/>
<line x1="2164.87" y1="481.461" x2="2178.48" y2="616.876" stroke="black" stroke-width="2"/>
<line x1="2238.16" y1="540.235" x2="2102.75" y2="553.843" stroke="black" stroke-width="2"/>
<line x1="1695.69" y1="1062.71" x2="1709.3" y2="1198.13" stroke="black" stroke-width="2"/>
<line x1="1768.99" y1="1121.49" x2="1633.57" y2="1135.1" stroke="black" stroke-width="2"/>
<line x1="653.177" y1="1167.69" x2="666.786" y2="1303.11" stroke="black" stroke-width="2"/>
<line x1="726.47" y1="1226.47" x2="591.055" y2="1240.08" stroke="black" stroke-width="2"/>
<line x1="130.863" y1="1220.18" x2="144.472" y2="1355.6" stroke="black" stroke-width="2"/>
<line x1="204.156" y1="1278.96" x2="68.7409" y2="1292.57" stroke="black" stroke-width="2"/>
<line x1="2218.01" y1="1010.22" x2="2231.62" y2="1145.64" stroke="black" stroke-width="2"/>
<line x1="2291.3" y1="1069" x2="2155.89" y2="1082.61" stroke="black" stroke-width="2"/>
<line y1="-1" x2="213.866" y2="-1" transform="matrix(0.0999903 0.994988 -0.994988 0.0999916 1168.17 1073.39)" stroke="black" stroke-width="2"/>
<line x1="1287.47" y1="1170.09" x2="1074.68" y2="1191.47" stroke="black" stroke-width="2"/>
</g>
<defs>
<clipPath id="clip0_109_329">
<rect width="2360" height="2360" fill="white"/>
</clipPath>
</defs>
</svg>
