
<?xml version="1.0" encoding="utf-8"?>
<!-- Generator: Adobe Illustrator 25.2.3, SVG Export Plug-In . SVG Version: 6.00 Build 0)  -->
<svg version="1.1" id="Layer_1" xmlns="http://www.w3.org/2000/svg" xmlns:xlink="http://www.w3.org/1999/xlink" x="0px" y="0px"
	 viewBox="0 0 300 95" enable-background="new 0 0 300 95" xml:space="preserve">
<g id="Capa_2">
	<g id="Capa_1-2">
		<path fill="#DD681C" d="M107.7928,46.558v-4.6194h10.1116V37.687h-10.1116v-4.5508h11.2213v-4.476h-16.2708v22.2991h16.6386
			V46.558H107.7928z"/>
		<path fill="#DD681C" d="M137.6164,35.424c-1.1946-1.2588-2.8657-1.954-4.6007-1.9138c-1.8815,0.0175-3.6715,0.8143-4.9436,2.2006
			v-1.9138h-4.8688v17.1623h4.8439v-9.5755c-0.0832-1.1197,0.3108-2.2225,1.0847-3.036c0.668-0.6752,1.5812-1.0508,2.531-1.0411
			c1.9637,0,2.9425,1.3154,2.9425,3.9586v9.6939h4.8438V40.5234C139.5455,38.6468,138.8853,36.81,137.6164,35.424z"/>
		<path fill="#DD681C" d="M156.5617,44.5818c-1.2842,1.5897-2.743,2.3814-4.3638,2.3814c-1.1886,0.0189-2.3403-0.4132-3.223-1.2094
			c-0.9408-0.8715-1.4436-2.1172-1.3715-3.3975c-0.0672-1.2832,0.4346-2.5307,1.3715-3.41
			c0.8949-0.8171,2.0674-1.2629,3.2791-1.2468c0.8328,0.0087,1.6545,0.1913,2.4126,0.5361c0.7913,0.3488,1.4927,0.8732,2.051,1.5336
			l2.4936-3.2542c-0.9529-0.9856-2.1047-1.757-3.3788-2.263c-1.2038-0.4995-2.4933-0.76-3.7965-0.7668
			c-2.3977-0.0334-4.7157,0.8599-6.4709,2.4936c-1.8139,1.6245-2.8159,3.9686-2.7367,6.4024
			c-0.0874,2.4222,0.9008,4.759,2.6993,6.3836c1.8143,1.6423,4.193,2.5201,6.6393,2.45c2.61,0,5.0329-1.1491,7.2689-3.4474
			L156.5617,44.5818z"/>
		<path fill="#DD681C" d="M175.4258,35.0749c-1.4959-1.0916-3.3179-1.6432-5.168-1.5647c-2.7881-0.0327-5.5138,0.8256-7.7801,2.45
			l2.157,3.117c0.7246-0.5325,1.5253-0.9529,2.3752-1.2468c0.854-0.31,1.7535-0.4764,2.6619-0.4925
			c1.9637,0,2.9425,0.9102,2.9425,2.743v0.0935h-3.6157c-2.2442,0-4.0023,0.4301-5.2927,1.3091
			c-1.298,0.8747-2.0358,2.3714-1.9388,3.9337c-0.0599,1.618,0.6302,3.1731,1.8702,4.2142
			c1.2955,1.0643,2.9309,1.6264,4.6069,1.5834c1.8269,0.0112,3.5479-0.8563,4.6257-2.3315v2.0822h4.5695V39.9935
			C177.4394,37.7555,176.7662,36.1222,175.4258,35.0749z M172.5582,44.4259c0.0223,0.8163-0.3459,1.5943-0.9912,2.0946
			c-0.6481,0.5105-1.4505,0.7853-2.2754,0.7793c-0.6975,0.0415-1.3911-0.1302-1.9886-0.4925
			c-0.4568-0.3264-0.7191-0.8604-0.6982-1.4214c0-1.1886,0.9725-1.785,2.9175-1.7892h3.036V44.4259z"/>
		<path fill="#DD681C" d="M191.9024,33.5102c-0.9984,0.03-1.976,0.2926-2.8552,0.7668c-0.883,0.4443-1.6758,1.0489-2.3378,1.7829
			v-2.263h-4.8501v17.1623h4.8501v-7.431c-0.0688-1.4135,0.3014-2.8137,1.0598-4.0085c0.7446-1.0257,1.9648-1.5957,3.2292-1.5086
			h0.9413L191.9024,33.5102z"/>
		<path fill="#DD681C" d="M209.5198,35.424c-1.1928-1.2615-2.8652-1.9571-4.6007-1.9138c-1.8799,0.0249-3.667,0.8204-4.9436,2.2006
			v-1.9138h-4.8438v17.1623h4.8438v-9.5755c-0.0832-1.1197,0.3108-2.2225,1.0847-3.036c0.6764-0.6818,1.6019-1.0579,2.5622-1.0411
			c1.9637,0,2.9425,1.3154,2.9425,3.9586v9.6939h4.8438V40.5234C211.4898,38.6389,210.809,36.801,209.5198,35.424z"/>
		<path fill="#DD681C" d="M228.5585,35.0749c-1.4958-1.0916-3.3179-1.6432-5.168-1.5647c-2.8022-0.0368-5.543,0.8215-7.8237,2.45
			l2.1694,3.117c0.7215-0.5375,1.523-0.9582,2.3752-1.2468c0.8536-0.3117,1.7533-0.4781,2.6619-0.4925
			c1.9637,0,2.9425,0.9102,2.9425,2.743v0.0935h-3.6157c-2.2443,0-4.0147,0.4301-5.3052,1.3091
			c-1.2989,0.8751-2.0404,2.37-1.9512,3.9337c-0.0637,1.6187,0.6271,3.1754,1.8702,4.2142
			c1.3006,1.0725,2.9469,1.6353,4.6319,1.5834c1.8299,0.0091,3.5537-0.8575,4.6381-2.3315v2.0822h4.5571V39.9935
			C230.5409,37.7555,229.8801,36.1222,228.5585,35.0749z M225.6784,44.4259c0.0274,0.8173-0.3418,1.5976-0.9912,2.0946
			c-0.6461,0.514-1.4498,0.7893-2.2754,0.7793c-0.6936,0.0418-1.3833-0.1301-1.9762-0.4925
			c-0.4613-0.3225-0.7249-0.8591-0.6982-1.4214c0-1.1907,0.9601-1.7892,2.9051-1.7892h3.036V44.4259z"/>
		<path fill="#DD681C" d="M247.6534,44.5818c-1.2905,1.5897-2.7367,2.3814-4.3638,2.3814c-1.1866,0.018-2.3359-0.4142-3.2168-1.2094
			c-0.943-0.8699-1.4463-2.1168-1.3715-3.3975c-0.0672-1.2832,0.4346-2.5307,1.3715-3.41c0.8949-0.8171,2.0674-1.2629,3.2791-1.2468
			c0.8308,0.0087,1.6505,0.1913,2.4063,0.5361c0.7903,0.3504,1.4914,0.8746,2.051,1.5336l2.4936-3.2542
			c-0.9517-0.9841-2.1011-1.7554-3.3726-2.263c-1.2045-0.4971-2.4935-0.7574-3.7965-0.7668
			c-2.4012-0.0321-4.7226,0.8608-6.4834,2.4936c-1.8107,1.6258-2.8083,3.9703-2.7243,6.4024
			c-0.0798,2.4303,0.9226,4.7707,2.7367,6.3899c1.8055,1.6316,4.1692,2.5065,6.6018,2.4437c2.6058,0,5.0288-1.1491,7.2689-3.4474
			L247.6534,44.5818z"/>
		<path fill="#DD681C" d="M258.2138,27.619c-0.5408-0.5273-1.2709-0.8149-2.0261-0.798c-0.7521-0.0208-1.4799,0.2676-2.0136,0.798
			c-1.1051,1.1052-1.1051,2.897,0,4.0022c0.5337,0.5303,1.2615,0.8187,2.0136,0.798c0.7551,0.017,1.4853-0.2706,2.0261-0.798
			C259.302,30.5091,259.302,28.7312,258.2138,27.619z M253.7627,33.7969v17.1623h4.8438V33.7969H253.7627z"/>
		<path fill="#DD681C" d="M277.9632,36.0848c-3.7106-3.432-9.437-3.432-13.1476,0c-3.4722,3.4565-3.485,9.0733-0.0286,12.5455
			c0.0095,0.0095,0.019,0.0191,0.0286,0.0286c3.7234,3.3993,9.4242,3.3993,13.1476,0c3.4722-3.4467,3.4929-9.0556,0.0462-12.5278
			C277.9941,36.1156,277.9787,36.1002,277.9632,36.0848z M274.4908,45.8037c-1.6362,1.7129-4.3511,1.7751-6.064,0.1389
			c-0.0474-0.0452-0.0937-0.0915-0.1389-0.1389c-0.8433-0.9362-1.2903-2.1632-1.2468-3.4225
			c-0.0416-1.2665,0.4048-2.5005,1.2468-3.4474c1.6111-1.7129,4.3058-1.7953,6.0187-0.1842
			c0.0633,0.0595,0.1247,0.1209,0.1842,0.1842c0.8286,0.9526,1.2613,2.186,1.2094,3.4474
			C275.7547,43.6354,275.3212,44.862,274.4908,45.8037z M272.6955,25.8548l-4.1082,5.6543h4.6319l4.4823-3.5783L272.6955,25.8548z"
			/>
		<path fill="#DD681C" d="M298.5231,35.424c-1.1946-1.2588-2.8658-1.954-4.6007-1.9138c-1.8815,0.0175-3.6714,0.8143-4.9436,2.2006
			v-1.9138h-4.8438v17.1623h4.8438v-9.5755c-0.0811-1.1172,0.3076-2.2175,1.0723-3.036c0.6731-0.6753,1.5901-1.0506,2.5435-1.0411
			c1.9513,0,2.9425,1.3154,2.9425,3.9586v9.6939h4.8438V40.5234C300.4675,38.6437,299.7985,36.8075,298.5231,35.424z"/>
		<path fill="#434040" d="M125.3167,59.3627c-2.4145-2.2374-6.1449-2.2374-8.5593,0c-2.3068,2.2896-2.3207,6.0157-0.0311,8.3225
			c0.0103,0.0104,0.0207,0.0208,0.0311,0.0311c2.4145,2.2374,6.1449,2.2374,8.5593,0c2.3068-2.2994,2.3128-6.0334,0.0134-8.3402
			C125.3257,59.3716,125.3212,59.3672,125.3167,59.3627z M123.4465,66.1204c-1.2196,1.3342-3.2897,1.427-4.6239,0.2075
			c-0.0722-0.066-0.1415-0.1353-0.2075-0.2075c-0.6518-0.6988-1.0032-1.6256-0.9788-2.5809
			c-0.0208-0.9565,0.33-1.8839,0.9788-2.5871c1.2196-1.3342,3.2897-1.427,4.6239-0.2075c0.0722,0.066,0.1415,0.1353,0.2075,0.2075
			c0.6533,0.7008,1.0068,1.6293,0.985,2.5871c0.0282,0.9548-0.3212,1.8821-0.9725,2.5809H123.4465z"/>
		<path fill="#434040" d="M137.7162,64.3374c-0.4506-0.4918-1.0471-0.8262-1.7019-0.9538l0.4115-0.1808
			c0.1477-0.0794,0.2858-0.1756,0.4114-0.2868c0.5991-0.474,0.9237-1.2144,0.8665-1.9762
			c-0.0033-0.7342-0.2838-1.4401-0.7855-1.9762c-0.3461-0.3516-0.7747-0.6109-1.2468-0.7543
			c-0.6496-0.1909-1.3241-0.2833-2.0011-0.2743h-4.4573v11.3584h4.9872c1.571,0,2.6744-0.3429,3.304-1.0536
			c0.5353-0.5648,0.8284-1.3166,0.8167-2.0946C138.353,65.4882,138.1372,64.843,137.7162,64.3374z M131.7627,60.0796h1.2468
			c0.546-0.0373,1.0934,0.0479,1.6021,0.2494c0.3418,0.2091,0.5277,0.6004,0.4738,0.9974c0.0511,0.4011-0.1528,0.7916-0.5112,0.9787
			c-0.5075,0.171-1.0422,0.247-1.5772,0.2244h-1.2468L131.7627,60.0796z M135.1602,66.8622
			c-0.5246,0.2087-1.0884,0.3002-1.652,0.2681h-1.7455v-2.6121h1.5024c0.634-0.0356,1.269,0.0512,1.8702,0.2556
			c0.3992,0.1839,0.6336,0.6049,0.5798,1.0411C135.7644,66.2451,135.5439,66.6614,135.1602,66.8622z"/>
		<rect x="140.4903" y="57.9413" fill="#434040" width="2.556" height="11.3335"/>
		<polygon fill="#434040" points="148.4138,64.6865 153.5382,64.6865 153.5382,62.5296 148.4138,62.5296 148.4138,60.1918 
			154.1117,60.1918 154.1117,57.9413 145.8578,57.9413 145.8578,69.2748 154.2925,69.2748 154.2925,67.0368 148.4138,67.0368 		"/>
		<path fill="#434040" d="M163.6747,65.2227c1.4588-0.5361,2.1819-1.7081,2.1819-3.516c0.0973-1.086-0.3288-2.1533-1.147-2.8739
			c-0.7522-0.5985-2.0178-0.8977-3.7965-0.8977h-4.3638v11.3584h2.556V65.684h1.7767l2.5373,3.6095h3.1482L163.6747,65.2227z
			 M162.7708,63.0595c-0.5279,0.3417-1.1582,0.4894-1.7829,0.4177h-1.8702V60.117h1.9201c0.5931-0.0515,1.1888,0.0629,1.7206,0.3304
			c0.3585,0.3098,0.5425,0.7756,0.4925,1.2468C163.3055,62.1985,163.129,62.7004,162.7708,63.0595z"/>
		<polygon fill="#434040" points="176.4794,65.2351 170.8625,57.9413 168.4749,57.9413 168.4749,69.2748 171.0309,69.2748 
			171.0309,62.1742 176.4794,69.2748 179.0354,69.2748 179.0354,57.9413 176.4794,57.9413 		"/>
		<path fill="#434040" d="M191.4785,59.3627c-2.4103-2.2357-6.1365-2.2357-8.5468,0c-2.3068,2.2994-2.3128,6.0334-0.0134,8.3402
			c0.0045,0.0045,0.0089,0.009,0.0134,0.0134c2.4103,2.2358,6.1365,2.2358,8.5468,0c2.3068-2.2896,2.3207-6.0157,0.0311-8.3225
			C191.4993,59.3834,191.4889,59.373,191.4785,59.3627z M189.6083,66.1204c-1.2195,1.3342-3.2897,1.427-4.6239,0.2075
			c-0.0722-0.066-0.1415-0.1353-0.2075-0.2075c-0.6506-0.7-1.0038-1.6254-0.985-2.5809c-0.0146-0.9566,0.3379-1.8825,0.985-2.5871
			c1.2195-1.3342,3.2897-1.427,4.6239-0.2075c0.0723,0.066,0.1415,0.1353,0.2075,0.2075c0.6487,0.7032,0.9996,1.6306,0.9788,2.5871
			c0.0312,0.9518-0.3111,1.8781-0.9538,2.5809H189.6083z"/>
		<polygon fill="#434040" points="206.1035,64.1691 203.1548,57.9413 199.7012,57.9413 199.7012,69.2748 202.2571,69.2748 
			202.2571,62.1431 205.3367,68.3335 206.8578,68.3335 209.9499,62.1431 209.9499,69.2748 212.5059,69.2748 212.5059,57.9413 
			209.0709,57.9413 		"/>
		<path fill="#434040" d="M222.4118,64.2003c0.0452,0.7672-0.1749,1.5266-0.6234,2.1507c-0.4114,0.5194-1.046,0.8113-1.7081,0.7855
			c-0.6658,0.0268-1.3047-0.2649-1.7206-0.7855c-0.4485-0.6241-0.6686-1.3835-0.6234-2.1507v-6.234h-2.556v6.34
			c-0.0896,1.3977,0.4126,2.7687,1.384,3.7778c2.0156,1.7673,5.0288,1.7673,7.0444,0c0.9707-1.0116,1.4708-2.3851,1.3777-3.7841
			v-6.3587h-2.556L222.4118,64.2003z"/>
		<polygon fill="#434040" points="235.6279,65.2351 230.011,57.9413 227.6234,57.9413 227.6234,69.2748 230.1794,69.2748 
			230.1794,62.1742 235.6279,69.2748 238.1839,69.2748 238.1839,57.9413 235.6279,57.9413 		"/>
		<rect x="241.0016" y="57.9413" fill="#434040" width="2.556" height="11.3335"/>
		<path fill="#434040" d="M251.8052,60.0983c1.185-0.0094,2.3043,0.5434,3.0173,1.4899l1.5835-1.7829
			c-1.1758-1.3754-2.9037-2.1548-4.7129-2.1258c-1.591-0.0346-3.1285,0.5746-4.2641,1.6894
			c-2.3116,2.3085-2.3283,6.0494-0.0374,8.3785c2.5311,2.334,6.475,2.1742,8.809-0.3568c0.0486-0.0527,0.0963-0.1062,0.143-0.1606
			l-1.6396-1.6769c-0.7326,0.9549-1.8763,1.5037-3.0796,1.4775c-0.8771,0.0161-1.7223-0.3287-2.3378-0.9538
			c-0.66-0.6751-1.01-1.5941-0.9663-2.5372c-0.0381-0.9403,0.3352-1.8507,1.0224-2.4936
			C250.0095,60.4223,250.8925,60.0825,251.8052,60.0983z"/>
		<rect x="258.3572" y="57.9413" fill="#434040" width="2.556" height="11.3335"/>
		<path fill="#434040" d="M271.6107,58.9575c-0.8042-0.6733-2.0822-1.0224-3.8402-1.0224h-4.0397v11.3584h2.556v-3.1794h1.5461
			c1.6894,0,2.9549-0.3242,3.7778-0.9725c0.8818-0.7671,1.3449-1.9087,1.2468-3.0734
			C272.944,60.8945,272.4839,59.7466,271.6107,58.9575z M269.7405,63.421c-0.4893,0.393-1.1161,0.5727-1.7393,0.4987h-1.7081V60.117
			h1.4587c0.6495-0.0494,1.2994,0.0914,1.8702,0.4052c0.4207,0.3378,0.6414,0.866,0.586,1.4027
			c0.0349,0.5404-0.1341,1.0743-0.4738,1.4962H269.7405z"/>
		<path fill="#434040" d="M280.0766,57.9351h-2.4936l-4.9311,11.3584h2.7243l1.0598-2.4375h4.794l1.0723,2.4375h2.7118
			L280.0766,57.9351z M277.3959,64.6055l1.4463-3.2916l1.4214,3.2916H277.3959z"/>
		<polygon fill="#434040" points="288.8977,67.0181 288.8977,57.9413 286.3418,57.9413 286.3418,69.2748 293.779,69.2748 
			293.779,67.0181 		"/>
		<path fill="#434040" d="M108.4973,64.9858h2.3378v1.6271c-0.6812,0.3581-1.444,0.5322-2.2131,0.505
			c-0.8469,0.005-1.6594-0.3349-2.2505-0.9413c-1.2944-1.4802-1.2784-3.6943,0.0374-5.1555
			c0.6476-0.6555,1.5349-1.018,2.4562-1.0037c0.4791-0.0057,0.9549,0.0789,1.4027,0.2494c0.5089,0.2293,0.9765,0.5411,1.384,0.9226
			l1.3279-1.8702c-1.1722-1.0595-2.7029-1.6344-4.2828-1.6084c-1.564-0.0307-3.0751,0.5666-4.1955,1.6583
			c-1.1507,1.0927-1.785,2.6216-1.7455,4.208c-0.0447,1.5702,0.5783,3.0857,1.7144,4.1706c1.13,1.1004,2.6562,1.6983,4.2329,1.6583
			c1.7694,0.0988,3.4928-0.585,4.7129-1.8702v-4.4324h-4.9062L108.4973,64.9858z"/>
		<path fill="#DD671A" d="M69.2291,65.3785c-1.5148,1.1462-2.9712,2.3675-4.3638,3.6594
			c-2.9236,2.7399-6.5195,4.6583-10.4233,5.5608c-5.1181,1.091-10.1989,1.2468-15.1799-0.5424
			c-6.633-2.344-10.8909-7.0632-13.2162-13.6151c-0.782-2.232-1.2418-4.5642-1.3653-6.926h55.5951
			c1.7856,0.0005,3.4882-0.7535,4.688-2.0759c1.2623-1.3726,1.8949-3.2095,1.7455-5.0683
			c-0.2848-4.2883-0.8513-8.5533-1.6957-12.7673c-1.0526-5.3627-2.9595-10.5216-5.648-15.2796
			C72.2775,6.2176,60.1711,0.0957,43.4077,0.0957c-12.8172,0-23.0285,3.9773-30.3722,11.8447
			C9.575,15.6968,6.8286,20.053,4.9313,24.795c-1.7164,4.2095-2.9442,8.6021-3.6594,13.0915
			c-0.8241,5.4217-1.0727,10.9153-0.7419,16.3893c0.3933,5.6476,1.8129,11.1761,4.1893,16.3145
			c4.5571,9.6503,11.8447,16.3643,21.763,20.2731c3.8422,1.4801,7.8516,2.4829,11.9382,2.9861
			c4.1313,0.559,8.3081,0.7031,12.4681,0.4302c5.1344-0.3546,10.2077-1.3236,15.1113-2.8864
			c4.1407-1.2496,8.0642-3.1294,11.6327-5.5732c2.4797-1.6575,4.5498-3.8575,6.0532-6.4335
			c1.1659-2.0482,1.7481-4.3768,1.6832-6.7328c-0.0894-2.3014-1.0499-4.483-2.6869-6.1031
			C79.1731,62.7449,73.3434,62.237,69.2291,65.3785z M51.7052,17.4388l2.0261,2.5373c-0.7555,0.4317-1.439,0.9786-2.0261,1.6208
			V17.4388z M51.7052,42.057L51.7052,42.057v-2.45l0,0V29.0341h12.5242V45.199H51.7052V42.057z M51.7613,26.7899
			c0.3263-3.4275,3.3692-5.9415,6.7967-5.6152c2.976,0.2833,5.332,2.6392,5.6152,5.6152H51.7613z M49.461,26.7899V45.199H36.3695
			v-3.2168l0,0v-2.4936l0,0V12.8319l6.5644-5.6605l6.5333,5.6605L49.461,26.7899z M34.119,21.5907
			c-0.575-0.6533-1.2557-1.2054-2.0136-1.6333l2.0136-2.5248V21.5907z M34.0567,26.7899H21.5886c0-3.443,2.7911-6.234,6.234-6.234
			S34.0567,23.3469,34.0567,26.7899z M34.0567,29.0341v9.6378l0,0v2.3128l0,0v4.208H21.5886V29.0341H34.0567z M66.4737,41.9199
			c2.528,1.0378,5.3858,0.9031,7.805-0.3678c2.0506-1.0972,4.5138-1.0972,6.5644,0c0.8416,0.4644,1.7568,0.7807,2.7056,0.9351
			c0.0997,0.9725,0.1808,1.8702,0.2431,2.718H66.4737V41.9199z M4.0585,38.273c1.1907-7.0445,4.0584-16.9815,11.0218-24.4623
			C21.8754,6.5604,31.3948,2.9011,43.4077,2.9011c31.5442,0,38.0588,23.016,39.8978,37.2359
			c-0.497-0.1662-0.9788-0.3747-1.4401-0.6234c-1.3122-0.7228-2.7912-1.0882-4.289-1.0598
			c-1.4926-0.0353-2.9674,0.3307-4.2703,1.0598c-2.0572,1.0972-4.5259,1.0972-6.5831,0c-0.0715-0.0492-0.149-0.089-0.2307-0.1184
			V27.2948l0,0c0,0,0-0.0312,0-0.0436v-0.4613h-0.0436c-0.2612-4.4925-3.9844-7.9996-8.4845-7.992
			c-0.7209,0.0088-1.4376,0.1115-2.132,0.3055h0.0374l-4.1643-5.2241V11.822l-7.9359-6.8574c-0.491-0.4289-1.2234-0.4289-1.7144,0
			L34.119,11.822v1.9887l-4.1706,5.2304l0,0c-0.6948-0.1741-1.4096-0.2558-2.1258-0.2431c-4.4846,0.0095-8.1837,3.5145-8.4346,7.992
			l0,0v11.9569c-0.7557-0.1925-1.533-0.2868-2.3128-0.2805c-1.4928-0.0371-2.9681,0.329-4.2703,1.0598
			c-1.0094,0.5612-2.1494,0.8452-3.304,0.8229c-1.1556,0.0342-2.2991-0.2436-3.3103-0.8042
			c-0.6916-0.375-1.4293-0.658-2.1944-0.8416C4.0064,38.5584,4.0273,38.4146,4.0585,38.273z M3.6658,40.9286
			c0.5292,0.1605,1.0425,0.3692,1.5336,0.6234c1.3036,0.7274,2.7779,1.0933,4.2703,1.0598
			c1.4947,0.0361,2.9717-0.3299,4.2765-1.0598c1.007-0.5616,2.1451-0.8455,3.2978-0.8229c0.7895-0.0179,1.575,0.1176,2.3128,0.399
			v4.0708H3.2356C3.3354,43.896,3.4663,42.4872,3.6658,40.9286z M3.1047,47.9731h80.6746c-0.1712,0.5812-0.4717,1.1162-0.879,1.5647
			c-0.6737,0.7461-1.6318,1.1719-2.637,1.172H3.086C3.0735,50.0366,3.0735,49.0952,3.1047,47.9731z"/>
		<path fill="#DD671A" d="M39.4865,25.3623h6.8574v-9.5942h-6.8574V25.3623z M41.1947,17.5012h3.4599v6.1281h-3.4599V17.5012z"/>
	</g>
</g>
</svg>
